<?xml version='1.0' encoding='UTF-8' standalone='no'?>
<svg xmlns:cc="http://creativecommons.org/ns#" enable-background="new 0 0 48 48" height="48px" inkscape:version="0.92.1 r15371" width="48px" xmlns:dc="http://purl.org/dc/elements/1.1/" xmlns:rdf="http://www.w3.org/1999/02/22-rdf-syntax-ns#" xmlns:inkscape="http://www.inkscape.org/namespaces/inkscape" sodipodi:docname="LocationAvailableLight.svg" xmlns:sodipodi="http://sodipodi.sourceforge.net/DTD/sodipodi-0.dtd" xml:space="preserve" xmlns="http://www.w3.org/2000/svg" viewBox="0 0 48 48" id="Layer_1" version="1.1" xmlns:svg="http://www.w3.org/2000/svg">
 <metadata id="metadata13">
  <rdf:RDF>
   <cc:Work rdf:about="">
    <dc:format>image/svg+xml</dc:format>
    <dc:type rdf:resource="http://purl.org/dc/dcmitype/StillImage"/>
    <dc:title/>
   </cc:Work>
  </rdf:RDF>
 </metadata>
 <defs id="defs11"/>
 <sodipodi:namedview inkscape:cy="24" inkscape:window-height="1017" id="namedview9" pagecolor="#ffffff" borderopacity="1" objecttolerance="10" inkscape:window-maximized="1" inkscape:window-x="-8" gridtolerance="10" guidetolerance="10" inkscape:zoom="4.9166667" inkscape:current-layer="Layer_1" inkscape:window-width="1920" inkscape:cx="-10.677966" inkscape:window-y="-8" inkscape:pageopacity="0" showgrid="false" bordercolor="#666666" inkscape:pageshadow="2"/>
 <g style="fill:#ffffff;fill-opacity:1" id="g6">
  <path d="M24,0C10.745,0,0,10.745,0,24s10.745,24,24,24s24-10.745,24-24S37.255,0,24,0z M32.985,22.385   c0,0,0.103,4.314-8.083,13.013c-0.81,0.797-1.58,0.011-1.628-0.041c-3.777-4.384-5.821-6.909-7.136-9.579   c-0.344-0.603-0.621-1.248-0.82-1.928c-0.004-0.011-0.009-0.021-0.013-0.032c0.001-0.001,0.003-0.001,0.004-0.002   c-0.231-0.8-0.361-1.642-0.361-2.515c0-5,4.053-9.054,9.054-9.054c4.999,0,9.052,4.053,9.052,9.054   c0,0.367-0.028,0.729-0.071,1.084C32.982,22.385,32.985,22.385,32.985,22.385z" fill="#ffffff" style="fill:#fbfbfb;fill-opacity:1" id="path4" fill-opacity="1"/>
 </g>
</svg>
