<?xml version='1.0' encoding='UTF-8' standalone='no'?>
<svg enable-background="new 0 0 48 48" id="Layer_1" viewBox="0 0 48 48" inkscape:version="0.92.1 r15371" xmlns="http://www.w3.org/2000/svg" xml:space="preserve" xmlns:rdf="http://www.w3.org/1999/02/22-rdf-syntax-ns#" height="48px" xmlns:dc="http://purl.org/dc/elements/1.1/" width="48px" xmlns:sodipodi="http://sodipodi.sourceforge.net/DTD/sodipodi-0.dtd" xmlns:inkscape="http://www.inkscape.org/namespaces/inkscape" sodipodi:docname="emailDark.svg" xmlns:svg="http://www.w3.org/2000/svg" version="1.1" xmlns:cc="http://creativecommons.org/ns#">
 <metadata id="metadata4496">
  <rdf:RDF>
   <cc:Work rdf:about="">
    <dc:format>image/svg+xml</dc:format>
    <dc:type rdf:resource="http://purl.org/dc/dcmitype/StillImage"/>
    <dc:title/>
   </cc:Work>
  </rdf:RDF>
 </metadata>
 <defs id="defs4494">
  <filter id="filter4492" inkscape:menu-tooltip="Light areas turn to black" inkscape:label="Black Light" style="color-interpolation-filters:sRGB;" inkscape:menu="Color">
   <feColorMatrix type="luminanceToAlpha" id="feColorMatrix4484" result="result2"/>
   <feComposite in2="SourceGraphic" in="result2" id="feComposite4486" k3="2" result="result4" operator="arithmetic"/>
   <feBlend in="result4" in2="result2" id="feBlend4488" result="result3" mode="multiply"/>
   <feComposite in2="SourceGraphic" in="result3" id="feComposite4490" operator="in"/>
  </filter>
 </defs>
 <sodipodi:namedview id="namedview4492" inkscape:window-maximized="1" inkscape:window-x="-8" borderopacity="1" pagecolor="#ffffff" inkscape:zoom="17.666667" inkscape:window-height="1017" inkscape:window-y="-8" gridtolerance="10" inkscape:cy="24" bordercolor="#666666" inkscape:pageopacity="0" inkscape:cx="10.336978" inkscape:pageshadow="2" showgrid="false" guidetolerance="10" objecttolerance="10" inkscape:window-width="1920" inkscape:current-layer="Layer_1"/>
 <g id="g4497">
  <path id="path4485" inkscape:connector-curvature="0" style="fill:#0064aa;fill-opacity:1;filter:url(#filter4492)" d="m 24.04,0 c -13.255,0 -24,10.745 -24,24 0,13.255 10.745,24 24,24 13.255,0 24,-10.745 24,-24 0,-13.255 -10.745,-24 -24,-24 z m 0.029,44.008 C 13,44.008 4.028,35.035 4.028,23.967 4.028,12.899 13,3.926 24.069,3.926 c 11.068,0 20.041,8.973 20.041,20.041 0,11.068 -8.972,20.041 -20.041,20.041 z"/>
 </g>
 <path id="path4487" inkscape:connector-curvature="0" style="fill:#0064aa;fill-opacity:1" d="M 35.25,14.576 H 12.83 c -1.104,0 -2,0.896 -2,2 v 14.848 c 0,1.104 0.896,2 2,2 h 22.42 c 1.104,0 2,-0.896 2,-2 V 16.576 c 0,-1.104 -0.896,-2 -2,-2 z m -1.84,13.605 c 0,1.104 -0.896,2 -2,2 H 16.069 c -1.104,0 -2,-0.896 -2,-2 v -8.098 c 0,0 0.013,-0.699 1.28,0 0.015,0.008 0.023,0.011 0.037,0.018 2.048,1.17 4.362,2.278 7.683,3.667 0.225,0.076 0.695,0.165 1.377,-0.008 3.297,-0.974 6.079,-2.286 8.199,-3.488 l 10e-4,0.001 c 0,0 0.764,-0.462 0.764,0 z"/>
</svg>
