<?xml version="1.0" encoding="UTF-8" standalone="no"?>
<svg
   xmlns:dc="http://purl.org/dc/elements/1.1/"
   xmlns:cc="http://creativecommons.org/ns#"
   xmlns:rdf="http://www.w3.org/1999/02/22-rdf-syntax-ns#"
   xmlns:svg="http://www.w3.org/2000/svg"
   xmlns="http://www.w3.org/2000/svg"
   xmlns:sodipodi="http://sodipodi.sourceforge.net/DTD/sodipodi-0.dtd"
   xmlns:inkscape="http://www.inkscape.org/namespaces/inkscape"
   enable-background="new 0 0 48 48"
   height="48px"
   id="Layer_1"
   version="1.1"
   viewBox="0 0 48 48"
   width="48px"
   xml:space="preserve"
   sodipodi:docname="emailWhite.svg"
   inkscape:version="0.92.1 r15371"><metadata
     id="metadata4496"><rdf:RDF><cc:Work
         rdf:about=""><dc:format>image/svg+xml</dc:format><dc:type
           rdf:resource="http://purl.org/dc/dcmitype/StillImage" /><dc:title></dc:title></cc:Work></rdf:RDF></metadata><defs
     id="defs4494" /><sodipodi:namedview
     pagecolor="#ffffff"
     bordercolor="#666666"
     borderopacity="1"
     objecttolerance="10"
     gridtolerance="10"
     guidetolerance="10"
     inkscape:pageopacity="0"
     inkscape:pageshadow="2"
     inkscape:window-width="1920"
     inkscape:window-height="1017"
     id="namedview4492"
     showgrid="false"
     inkscape:zoom="17.666667"
     inkscape:cx="24"
     inkscape:cy="24"
     inkscape:window-x="-8"
     inkscape:window-y="-8"
     inkscape:window-maximized="1"
     inkscape:current-layer="Layer_1" /><g
     id="g4489"
     style="fill:#ffffff;fill-opacity:1"><path
       d="M24.04,0c-13.255,0-24,10.745-24,24s10.745,24,24,24s24-10.745,24-24S37.295,0,24.04,0z M24.069,44.008   C13,44.008,4.028,35.035,4.028,23.967S13,3.926,24.069,3.926c11.068,0,20.041,8.973,20.041,20.041S35.138,44.008,24.069,44.008z"
       fill="#231F20"
       id="path4485"
       style="fill:#ffffff;fill-opacity:1" /><path
       d="M35.25,14.576H12.83c-1.104,0-2,0.896-2,2v14.848c0,1.104,0.896,2,2,2h22.42c1.104,0,2-0.896,2-2V16.576   C37.25,15.472,36.354,14.576,35.25,14.576z M33.41,28.181c0,1.104-0.896,2-2,2H16.069c-1.104,0-2-0.896-2-2v-8.098   c0,0,0.013-0.699,1.28,0c0.015,0.008,0.023,0.011,0.037,0.018c2.048,1.17,4.362,2.278,7.683,3.667   c0.225,0.076,0.695,0.165,1.377-0.008c3.297-0.974,6.079-2.286,8.199-3.488l0.001,0.001c0,0,0.764-0.462,0.764,0V28.181z"
       fill="#231F20"
       id="path4487"
       style="fill:#ffffff;fill-opacity:1" /></g></svg>