<?xml version="1.0" encoding="UTF-8" standalone="no"?>
<svg
   xmlns:dc="http://purl.org/dc/elements/1.1/"
   xmlns:cc="http://creativecommons.org/ns#"
   xmlns:rdf="http://www.w3.org/1999/02/22-rdf-syntax-ns#"
   xmlns:svg="http://www.w3.org/2000/svg"
   xmlns="http://www.w3.org/2000/svg"
   xmlns:sodipodi="http://sodipodi.sourceforge.net/DTD/sodipodi-0.dtd"
   xmlns:inkscape="http://www.inkscape.org/namespaces/inkscape"
   enable-background="new 0 0 48 48"
   height="48px"
   id="Layer_1"
   version="1.1"
   viewBox="0 0 48 48"
   width="48px"
   xml:space="preserve"
   sodipodi:docname="1494604743_Contact.svg"
   inkscape:version="0.92.1 r15371"><metadata
     id="metadata4501"><rdf:RDF><cc:Work
         rdf:about=""><dc:format>image/svg+xml</dc:format><dc:type
           rdf:resource="http://purl.org/dc/dcmitype/StillImage" /><dc:title></dc:title></cc:Work></rdf:RDF></metadata><defs
     id="defs4499" /><sodipodi:namedview
     pagecolor="#ffffff"
     bordercolor="#666666"
     borderopacity="1"
     objecttolerance="10"
     gridtolerance="10"
     guidetolerance="10"
     inkscape:pageopacity="0"
     inkscape:pageshadow="2"
     inkscape:window-width="1920"
     inkscape:window-height="1017"
     id="namedview4497"
     showgrid="false"
     inkscape:zoom="6.9532167"
     inkscape:cx="15.208073"
     inkscape:cy="4.8034187"
     inkscape:window-x="-8"
     inkscape:window-y="-8"
     inkscape:window-maximized="1"
     inkscape:current-layer="Layer_1" /><g
     id="g4494"
     style="fill:#ffffff;fill-opacity:1"><path
       d="M24.04,0c-13.255,0-24,10.745-24,24s10.745,24,24,24s24-10.745,24-24S37.295,0,24.04,0z M24.069,44.008   C13,44.008,4.028,35.035,4.028,23.967S13,3.926,24.069,3.926c11.068,0,20.041,8.973,20.041,20.041S35.138,44.008,24.069,44.008z"
       fill="#231F20"
       id="path4490"
       style="fill:#ffffff;fill-opacity:1" /></g><g
     inkscape:groupmode="layer"
     id="layer3"
     inkscape:label="phone"
     style="display:inline"><path
       d="m 36.295335,31.16742 q 0,0.479405 -0.177557,1.251778 -0.177555,0.77237 -0.372868,1.216262 -0.37287,0.887785 -2.166194,1.882103 -1.669033,0.90554 -3.302555,0.90554 -0.479402,0 -0.932172,-0.06215 -0.45277,-0.06215 -1.020952,-0.22195 -0.568183,-0.1598 -0.843395,-0.257458 -0.275213,-0.09765 -0.98544,-0.363992 -0.710227,-0.266335 -0.87003,-0.319603 -1.740055,-0.621447 -3.107242,-1.47372 -2.272727,-1.4027 -4.696379,-3.826348 -2.423649,-2.42365 -3.826347,-4.696378 -0.852274,-1.367187 -1.473722,-3.107245 -0.05326,-0.1598 -0.319602,-0.87003 -0.266335,-0.710225 -0.363993,-0.98544 -0.09765,-0.275212 -0.257457,-0.843392 -0.1598,-0.568183 -0.221945,-1.020953 -0.06215,-0.45277 -0.06215,-0.932171 0,-1.633525 0.90554,-3.302558 0.994317,-1.793325 1.882102,-2.166192 0.443892,-0.195325 1.216265,-0.37287 0.77237,-0.17755 1.251774,-0.17755 0.24858,0 0.37287,0.05328 0.319603,0.106525 0.94105,1.349432 0.195313,0.337358 0.53267,0.958805 0.337358,0.62145 0.62145,1.127488 0.28409,0.506035 0.550425,0.949927 0.05326,0.07103 0.310725,0.443893 0.257457,0.37287 0.381747,0.630327 0.124288,0.257458 0.124288,0.506038 0,0.355111 -0.506038,0.887781 -0.506037,0.53267 -1.100852,0.976563 -0.594815,0.443892 -1.100852,0.941052 -0.506038,0.497158 -0.506038,0.81676 0,0.1598 0.08877,0.399503 0.08878,0.2397 0.150923,0.363992 0.06215,0.1243 0.24858,0.426135 0.186435,0.301848 0.20419,0.337358 1.349432,2.43253 3.089489,4.172587 1.740055,1.740055 4.172584,3.089488 0.03551,0.01775 0.337358,0.2042 0.301847,0.186423 0.426135,0.248573 0.124287,0.06215 0.363992,0.150925 0.239702,0.08877 0.399502,0.08877 0.319603,0 0.816763,-0.506036 0.49716,-0.506037 0.94105,-1.100852 0.443892,-0.594815 0.976562,-1.100853 0.532672,-0.506037 0.887785,-0.506037 0.24858,0 0.506037,0.1243 0.257458,0.1243 0.630325,0.381747 0.37287,0.257458 0.443892,0.310725 0.443893,0.266335 0.949928,0.550425 0.506037,0.284093 1.127487,0.62145 0.621447,0.337358 0.958805,0.53267 1.2429,0.621449 1.349432,0.941051 0.05326,0.124275 0.05326,0.372868 z"
       id="path5046-0"
       inkscape:connector-curvature="0"
       style="display:inline;stroke-width:0.01775568;fill:#ffffff;fill-opacity:1" /></g></svg>