<?xml version="1.0" encoding="UTF-8" standalone="no"?>
<svg
   xmlns:dc="http://purl.org/dc/elements/1.1/"
   xmlns:cc="http://creativecommons.org/ns#"
   xmlns:rdf="http://www.w3.org/1999/02/22-rdf-syntax-ns#"
   xmlns:svg="http://www.w3.org/2000/svg"
   xmlns="http://www.w3.org/2000/svg"
   xmlns:sodipodi="http://sodipodi.sourceforge.net/DTD/sodipodi-0.dtd"
   xmlns:inkscape="http://www.inkscape.org/namespaces/inkscape"
   enable-background="new 0 0 48 48"
   height="48px"
   id="Layer_1"
   version="1.1"
   viewBox="0 0 48 48"
   width="48px"
   xml:space="preserve"
   sodipodi:docname="LocationShadowWhiteNormal.svg"
   inkscape:version="0.92.1 r15371"><metadata
     id="metadata13"><rdf:RDF><cc:Work
         rdf:about=""><dc:format>image/svg+xml</dc:format><dc:type
           rdf:resource="http://purl.org/dc/dcmitype/StillImage" /><dc:title></dc:title></cc:Work></rdf:RDF></metadata><defs
     id="defs11" /><sodipodi:namedview
     pagecolor="#ffffff"
     bordercolor="#666666"
     borderopacity="1"
     objecttolerance="10"
     gridtolerance="10"
     guidetolerance="10"
     inkscape:pageopacity="0"
     inkscape:pageshadow="2"
     inkscape:window-width="1920"
     inkscape:window-height="1017"
     id="namedview9"
     showgrid="false"
     inkscape:zoom="4.9166667"
     inkscape:cx="24"
     inkscape:cy="24"
     inkscape:window-x="-8"
     inkscape:window-y="-8"
     inkscape:window-maximized="1"
     inkscape:current-layer="Layer_1"
     showguides="false"><inkscape:grid
       type="xygrid"
       id="grid5644" /></sodipodi:namedview><ellipse
     style="opacity:1;fill:#010101;fill-opacity:0.5;stroke:none;stroke-width:121.63071442;stroke-miterlimit:4;stroke-dasharray:none;stroke-opacity:1"
     id="path4513"
     cx="24"
     cy="41"
     rx="24"
     ry="7" /><g
     id="g6"
     style="fill:#ffffff;fill-opacity:1"
     transform="matrix(0.83333333,0,0,0.83333333,4,1.6e-7)"><path
       d="M 24,0 C 10.745,0 0,10.745 0,24 0,37.255 10.745,48 24,48 37.256,48 48,37.255 48,24 48,10.745 37.256,0 24,0 Z m 0.07,44.009 c -11.045,0 -20,-8.954 -20,-20 0,-11.046 8.955,-20 20,-20 11.047,0 20,8.955 20,20 0,11.045 -8.953,20 -20,20 z"
       id="path2"
       style="fill:#ffffff;fill-opacity:1"
       inkscape:connector-curvature="0" /><path
       d="m 24.001,12.247 c -5.001,0 -9.054,4.053 -9.054,9.053 0,0.875 0.13,1.717 0.361,2.516 -10e-4,0.001 -0.003,0.002 -0.004,0.002 0.004,0.012 0.009,0.021 0.013,0.033 0.199,0.68 0.477,1.324 0.82,1.927 1.315,2.67 3.359,5.195 7.136,9.579 0.048,0.052 0.819,0.838 1.628,0.041 8.186,-8.698 8.084,-13.013 8.084,-13.013 h -0.004 c 0.043,-0.356 0.07,-0.717 0.07,-1.085 0.002,-5 -4.051,-9.053 -9.05,-9.053 z m 5.638,10.735 c 0,0 0.066,2.59 -4.777,7.817 -0.614,0.654 -1.114,0.332 -1.335,0.113 -2.281,-2.651 -3.524,-4.195 -4.329,-5.828 -0.214,-0.373 -0.385,-0.773 -0.508,-1.194 -0.003,-0.007 -0.006,-0.014 -0.008,-0.021 0,0 0.001,0 0.002,-0.002 -0.144,-0.494 -0.225,-1.016 -0.225,-1.558 0,-3.099 2.512,-5.61 5.61,-5.61 3.1,0 5.612,2.512 5.612,5.61 0,0.228 -0.02,0.451 -0.045,0.672 h 0.003 z"
       id="path4"
       style="fill:#ffffff;fill-opacity:1"
       inkscape:connector-curvature="0" /></g></svg>