<?xml version="1.0" encoding="UTF-8" standalone="no"?>
<svg
   xmlns:dc="http://purl.org/dc/elements/1.1/"
   xmlns:cc="http://creativecommons.org/ns#"
   xmlns:rdf="http://www.w3.org/1999/02/22-rdf-syntax-ns#"
   xmlns:svg="http://www.w3.org/2000/svg"
   xmlns="http://www.w3.org/2000/svg"
   xmlns:sodipodi="http://sodipodi.sourceforge.net/DTD/sodipodi-0.dtd"
   xmlns:inkscape="http://www.inkscape.org/namespaces/inkscape"
   enable-background="new 0 0 48 48"
   height="48px"
   id="Layer_1"
   version="1.1"
   viewBox="0 0 48 48"
   width="48px"
   xml:space="preserve"
   sodipodi:docname="LocationShadowWhiteHover.svg"
   inkscape:version="0.92.1 r15371"><metadata
     id="metadata4503"><rdf:RDF><cc:Work
         rdf:about=""><dc:format>image/svg+xml</dc:format><dc:type
           rdf:resource="http://purl.org/dc/dcmitype/StillImage" /><dc:title></dc:title></cc:Work></rdf:RDF></metadata><defs
     id="defs4501" /><sodipodi:namedview
     pagecolor="#ffffff"
     bordercolor="#666666"
     borderopacity="1"
     objecttolerance="10"
     gridtolerance="10"
     guidetolerance="10"
     inkscape:pageopacity="0"
     inkscape:pageshadow="2"
     inkscape:window-width="1920"
     inkscape:window-height="1017"
     id="namedview4499"
     showgrid="false"
     inkscape:zoom="4.9166667"
     inkscape:cx="-9.0508473"
     inkscape:cy="24"
     inkscape:window-x="-8"
     inkscape:window-y="-8"
     inkscape:window-maximized="1"
     inkscape:current-layer="Layer_1" /><ellipse
     style="opacity:1;fill:#010101;fill-opacity:0.5;stroke:none;stroke-width:121.63071442;stroke-miterlimit:4;stroke-dasharray:none;stroke-opacity:1"
     id="path4513"
     cx="24"
     cy="41"
     rx="24"
     ry="7" /><g
     id="g4496"
     style="fill:#fefefe;fill-opacity:1"
     transform="matrix(0.83333333,0,0,0.83333333,4,0)"><path
       d="m 24.07,16.7 c -3.099,0 -5.61,2.512 -5.61,5.61 0,0.541 0.081,1.063 0.225,1.559 -10e-4,0 -0.002,0 -0.002,0.001 0.002,0.007 0.005,0.014 0.008,0.021 0.123,0.422 0.294,0.82 0.508,1.194 0.804,1.633 2.047,3.177 4.329,5.828 0.221,0.219 0.72,0.541 1.335,-0.113 4.843,-5.228 4.776,-7.817 4.776,-7.817 0,0 -10e-4,0 -0.002,0 0.026,-0.221 0.045,-0.444 0.045,-0.672 C 29.681,19.212 27.169,16.7 24.07,16.7 Z"
       id="path4492"
       style="fill:#fefefe;fill-opacity:1"
       inkscape:connector-curvature="0" /><path
       d="M 24,0 C 10.745,0 0,10.745 0,24 0,37.255 10.745,48 24,48 37.255,48 48,37.255 48,24 48,10.745 37.255,0 24,0 Z m 8.985,22.385 c 0,0 0.103,4.314 -8.083,13.013 -0.81,0.797 -1.58,0.011 -1.628,-0.041 -3.777,-4.384 -5.821,-6.909 -7.136,-9.579 -0.344,-0.603 -0.621,-1.248 -0.82,-1.928 -0.004,-0.011 -0.009,-0.021 -0.013,-0.032 10e-4,-0.001 0.003,-0.001 0.004,-0.002 -0.231,-0.8 -0.361,-1.642 -0.361,-2.515 0,-5 4.053,-9.054 9.054,-9.054 4.999,0 9.052,4.053 9.052,9.054 0,0.367 -0.028,0.729 -0.071,1.084 -10e-4,0 0.002,0 0.002,0 z"
       id="path4494"
       style="fill:#fefefe;fill-opacity:1"
       inkscape:connector-curvature="0" /></g></svg>