<?xml version='1.0' encoding='UTF-8' standalone='no'?>
<svg enable-background="new 0 0 48 48" id="Layer_1" viewBox="0 0 48 48" inkscape:version="0.92.1 r15371" xmlns="http://www.w3.org/2000/svg" xml:space="preserve" xmlns:rdf="http://www.w3.org/1999/02/22-rdf-syntax-ns#" height="48px" xmlns:dc="http://purl.org/dc/elements/1.1/" width="48px" sodipodi:docname="InfoWhiteHover.svg" xmlns:inkscape="http://www.inkscape.org/namespaces/inkscape" xmlns:sodipodi="http://sodipodi.sourceforge.net/DTD/sodipodi-0.dtd" xmlns:svg="http://www.w3.org/2000/svg" version="1.1" xmlns:cc="http://creativecommons.org/ns#">
 <metadata id="metadata9">
  <rdf:RDF>
   <cc:Work rdf:about="">
    <dc:format>image/svg+xml</dc:format>
    <dc:type rdf:resource="http://purl.org/dc/dcmitype/StillImage"/>
    <dc:title/>
   </cc:Work>
  </rdf:RDF>
 </metadata>
 <defs id="defs7"/>
 <sodipodi:namedview id="namedview5" inkscape:window-maximized="1" inkscape:window-x="-8" borderopacity="1" pagecolor="#ffffff" inkscape:zoom="4.9166667" inkscape:window-height="1017" inkscape:window-y="-8" gridtolerance="10" inkscape:cy="24" bordercolor="#666666" inkscape:pageopacity="0" inkscape:cx="24" inkscape:pageshadow="2" showgrid="false" guidetolerance="10" objecttolerance="10" inkscape:window-width="1920" inkscape:current-layer="Layer_1"/>
 <path id="path2" fill-opacity="1" fill="#0064aa" style="fill:#ffffff;fill-opacity:1" d="M24,0C10.745,0,0,10.745,0,24s10.745,24,24,24s24-10.745,24-24S37.255,0,24,0z M25.602,34.941  c0,0.997-0.635,1.181-0.986,1.207h-1.181c-0.826,0-0.978-0.621-1-0.966V19.879c0-1.141,1.25-1.152,1.25-1.152h0.566  c0.298,0.005,1.351,0.116,1.351,1.418V34.941z M23.945,15.775c-1.116,0-1.907-0.864-1.907-1.944c0-1.116,0.828-1.979,1.979-1.979  c1.188,0,1.943,0.864,1.943,1.979C25.997,14.911,25.205,15.775,23.945,15.775z"/>
</svg>
