<?xml version="1.0" encoding="UTF-8" standalone="no"?>
<svg
   xmlns:dc="http://purl.org/dc/elements/1.1/"
   xmlns:cc="http://creativecommons.org/ns#"
   xmlns:rdf="http://www.w3.org/1999/02/22-rdf-syntax-ns#"
   xmlns:svg="http://www.w3.org/2000/svg"
   xmlns="http://www.w3.org/2000/svg"
   xmlns:sodipodi="http://sodipodi.sourceforge.net/DTD/sodipodi-0.dtd"
   xmlns:inkscape="http://www.inkscape.org/namespaces/inkscape"
   enable-background="new 0 0 48 48"
   height="48px"
   id="Layer_1"
   version="1.1"
   viewBox="0 0 48 48"
   width="48px"
   xml:space="preserve"
   sodipodi:docname="XWhite.svg"
   inkscape:version="0.92.1 r15371"><metadata
     id="metadata4505"><rdf:RDF><cc:Work
         rdf:about=""><dc:format>image/svg+xml</dc:format><dc:type
           rdf:resource="http://purl.org/dc/dcmitype/StillImage" /><dc:title></dc:title></cc:Work></rdf:RDF></metadata><defs
     id="defs4503" /><sodipodi:namedview
     pagecolor="#ffffff"
     bordercolor="#666666"
     borderopacity="1"
     objecttolerance="10"
     gridtolerance="10"
     guidetolerance="10"
     inkscape:pageopacity="0"
     inkscape:pageshadow="2"
     inkscape:window-width="1920"
     inkscape:window-height="1017"
     id="namedview4501"
     showgrid="false"
     inkscape:zoom="4.9166667"
     inkscape:cx="-43.728813"
     inkscape:cy="24"
     inkscape:window-x="-8"
     inkscape:window-y="-8"
     inkscape:window-maximized="1"
     inkscape:current-layer="Layer_1" /><path
     d="m 40.970563,7.0294373 c -9.372701,-9.3727004 -24.568425,-9.3727004 -33.9411257,0 -9.3719933,9.3719937 -9.3727004,24.5684247 0,33.9411257 9.3727007,9.3727 24.5691317,9.371993 33.9411257,0 9.3727,-9.372701 9.3727,-24.568425 0,-33.9411257 z M 30.551344,31.634632 c -0.784181,0.784181 -1.55917,0.286378 -1.899288,-0.01556 l -4.65347,-4.65347 -4.677512,4.666197 c -0.864791,0.861964 -1.594525,0.275065 -1.772009,0.103238 L 16.27203,30.455178 c -0.186676,-0.195162 -0.779232,-0.933381 0.08556,-1.795344 l 4.673976,-4.662662 -4.668319,-4.668319 c -0.863378,-0.863378 -0.277186,-1.592405 -0.106066,-1.77201 l 1.279156,-1.279156 c 0.194454,-0.187383 0.932674,-0.779939 1.795344,0.08273 l 4.671855,4.671855 4.575688,-4.564374 c 0.220617,-0.212132 1.116521,-0.965201 1.9502,-0.128694 l 1.1144,1.117229 c 0.784182,0.785595 0.284964,1.560585 -0.01768,1.899996 l -4.654884,4.644984 4.566495,4.566496 c 0.212132,0.220617 0.966615,1.115107 0.130815,1.950907 l -1.116522,1.116522 z"
     id="path4498"
     style="fill:#fefefe;fill-opacity:1"
     inkscape:connector-curvature="0" /></svg>