<?xml version='1.0' encoding='UTF-8' standalone='no'?>
<svg xmlns:sodipodi="http://sodipodi.sourceforge.net/DTD/sodipodi-0.dtd" height="48px" version="1.1" xml:space="preserve" inkscape:version="0.92.1 r15371" xmlns:rdf="http://www.w3.org/1999/02/22-rdf-syntax-ns#" xmlns:svg="http://www.w3.org/2000/svg" viewBox="0 0 48 48" xmlns:cc="http://creativecommons.org/ns#" xmlns="http://www.w3.org/2000/svg" xmlns:inkscape="http://www.inkscape.org/namespaces/inkscape" enable-background="new 0 0 48 48" xmlns:dc="http://purl.org/dc/elements/1.1/" id="Layer_1" width="48px" sodipodi:docname="LocationMainLight.svg">
 <metadata id="metadata13">
  <rdf:RDF>
   <cc:Work rdf:about="">
    <dc:format>image/svg+xml</dc:format>
    <dc:type rdf:resource="http://purl.org/dc/dcmitype/StillImage"/>
    <dc:title/>
   </cc:Work>
  </rdf:RDF>
 </metadata>
 <defs id="defs11"/>
 <sodipodi:namedview inkscape:window-y="-8" inkscape:pageopacity="0" inkscape:current-layer="Layer_1" showgrid="false" gridtolerance="10" inkscape:window-width="1920" inkscape:pageshadow="2" borderopacity="1" inkscape:window-x="-8" inkscape:cy="24" inkscape:zoom="4.9166667" objecttolerance="10" inkscape:cx="-10.677966" bordercolor="#666666" pagecolor="#ffffff" inkscape:window-height="1017" inkscape:window-maximized="1" guidetolerance="10" id="namedview9"/>
 <g style="fill:#ffffff;fill-opacity:1" id="g6">
  <path fill-opacity="1" fill="#ffffff" d="M24,0C10.745,0,0,10.745,0,24s10.745,24,24,24c13.256,0,24-10.745,24-24S37.256,0,24,0z M24.07,44.009   c-11.045,0-20-8.954-20-20s8.955-20,20-20c11.047,0,20,8.955,20,20S35.117,44.009,24.07,44.009z" style="fill:#fbfbfb;fill-opacity:1" id="path2"/>
  <path fill-opacity="1" fill="#ffffff" d="M24.001,12.247c-5.001,0-9.054,4.053-9.054,9.053c0,0.875,0.13,1.717,0.361,2.516   c-0.001,0.001-0.003,0.002-0.004,0.002c0.004,0.012,0.009,0.021,0.013,0.033c0.199,0.68,0.477,1.324,0.82,1.927   c1.315,2.67,3.359,5.195,7.136,9.579c0.048,0.052,0.819,0.838,1.628,0.041c8.186-8.698,8.084-13.013,8.084-13.013h-0.004   c0.043-0.356,0.07-0.717,0.07-1.085C33.053,16.3,29,12.247,24.001,12.247z M29.639,22.982c0,0,0.066,2.59-4.777,7.817   c-0.614,0.654-1.114,0.332-1.335,0.113c-2.281-2.651-3.524-4.195-4.329-5.828c-0.214-0.373-0.385-0.773-0.508-1.194   c-0.003-0.007-0.006-0.014-0.008-0.021c0,0,0.001,0,0.002-0.002c-0.144-0.494-0.225-1.016-0.225-1.558   c0-3.099,2.512-5.61,5.61-5.61c3.1,0,5.612,2.512,5.612,5.61c0,0.228-0.02,0.451-0.045,0.672H29.639z" style="fill:#fbfbfb;fill-opacity:1" id="path4"/>
 </g>
</svg>
