<?xml version='1.0' encoding='UTF-8' standalone='no'?>
<svg enable-background="new 0 0 48 48" id="Layer_1" viewBox="0 0 48 48" inkscape:version="0.92.1 r15371" xmlns="http://www.w3.org/2000/svg" xml:space="preserve" xmlns:rdf="http://www.w3.org/1999/02/22-rdf-syntax-ns#" height="48px" xmlns:dc="http://purl.org/dc/elements/1.1/" width="48px" sodipodi:docname="MenuBlack.svg" xmlns:inkscape="http://www.inkscape.org/namespaces/inkscape" xmlns:sodipodi="http://sodipodi.sourceforge.net/DTD/sodipodi-0.dtd" xmlns:svg="http://www.w3.org/2000/svg" version="1.1" xmlns:cc="http://creativecommons.org/ns#">
 <metadata id="metadata4496">
  <rdf:RDF>
   <cc:Work rdf:about="">
    <dc:format>image/svg+xml</dc:format>
    <dc:type rdf:resource="http://purl.org/dc/dcmitype/StillImage"/>
    <dc:title/>
   </cc:Work>
  </rdf:RDF>
 </metadata>
 <defs id="defs4494"/>
 <sodipodi:namedview id="namedview4492" inkscape:window-maximized="1" inkscape:window-x="-8" borderopacity="1" pagecolor="#ffffff" inkscape:zoom="17.666667" inkscape:window-height="1017" inkscape:window-y="-8" gridtolerance="10" inkscape:cy="24" bordercolor="#666666" inkscape:pageopacity="0" inkscape:cx="25.660087" inkscape:pageshadow="2" showgrid="false" guidetolerance="10" objecttolerance="10" inkscape:window-width="1920" inkscape:current-layer="Layer_1"/>
 <g id="g4489" transform="rotate(-45,24,24)" style="fill:#0064aa;fill-opacity:1">
  <path id="path4485" inkscape:connector-curvature="0" style="fill:#0064aa;fill-opacity:1" d="M 24,0 C 10.745,0 0,10.746 0,24 0,37.255 10.745,48 24,48 37.255,48 48,37.256 48,24 48,10.746 37.255,0 24,0 Z m 0.029,43.844 C 13.006,43.844 4.07,34.908 4.07,23.886 c 0,-11.022 8.936,-19.96 19.959,-19.96 11.022,0 19.959,8.936 19.959,19.959 0,11.023 -8.936,19.959 -19.959,19.959 z"/>
 </g>
 <g id="miu" transform="translate(6.90566,8.3207552)" style="fill:none;fill-rule:evenodd;stroke:none;stroke-width:1">
  <g id="Artboard-1" transform="translate(-395,-479)">
   <g id="slice" transform="translate(215,119)"/>
   <path id="editor-list-view-hambuger-menu-glyph" inkscape:connector-curvature="0" style="fill:#0064aa;stroke-width:0.99575955; fill-opacity:1" d="m 404.40714,486.58491 c -0.20402,0 -0.36941,0.28774 -0.36941,0.67846 v 1.33176 c 0,0.37468 0.1606,0.67846 0.36941,0.67846 h 15.48761 c 0.20401,0 0.3694,-0.28775 0.3694,-0.67846 v -1.33176 c 0,-0.37471 -0.1606,-0.67846 -0.3694,-0.67846 z m 0,6.72169 c -0.20402,0 -0.36941,0.28775 -0.36941,0.67846 v 1.33176 c 0,0.3747 0.1606,0.67846 0.36941,0.67846 h 15.48761 c 0.20401,0 0.3694,-0.28774 0.3694,-0.67846 v -1.33176 c 0,-0.37471 -0.1606,-0.67846 -0.3694,-0.67846 z m 0,6.7217 c -0.20402,0 -0.36941,0.28775 -0.36941,0.67846 v 1.33176 c 0,0.3747 0.1606,0.67846 0.36941,0.67846 h 15.48761 c 0.20401,0 0.3694,-0.28775 0.3694,-0.67846 v -1.33176 c 0,-0.3747 -0.1606,-0.67846 -0.3694,-0.67846 z"/>
  </g>
 </g>
</svg>
