<?xml version='1.0' encoding='UTF-8' standalone='no'?>
<svg enable-background="new 0 0 48 48" id="Layer_1" viewBox="0 0 48 48" inkscape:version="0.92.1 r15371" xmlns="http://www.w3.org/2000/svg" xml:space="preserve" xmlns:rdf="http://www.w3.org/1999/02/22-rdf-syntax-ns#" height="48px" xmlns:dc="http://purl.org/dc/elements/1.1/" width="48px" sodipodi:docname="XBlack.svg" xmlns:inkscape="http://www.inkscape.org/namespaces/inkscape" xmlns:sodipodi="http://sodipodi.sourceforge.net/DTD/sodipodi-0.dtd" xmlns:svg="http://www.w3.org/2000/svg" version="1.1" xmlns:cc="http://creativecommons.org/ns#">
 <metadata id="metadata4496">
  <rdf:RDF>
   <cc:Work rdf:about="">
    <dc:format>image/svg+xml</dc:format>
    <dc:type rdf:resource="http://purl.org/dc/dcmitype/StillImage"/>
    <dc:title/>
   </cc:Work>
  </rdf:RDF>
 </metadata>
 <defs id="defs4494"/>
 <sodipodi:namedview id="namedview4492" inkscape:window-maximized="1" inkscape:window-x="-8" borderopacity="1" pagecolor="#ffffff" inkscape:zoom="17.666667" inkscape:window-height="1017" inkscape:window-y="-8" gridtolerance="10" inkscape:cy="24" bordercolor="#666666" inkscape:pageopacity="0" inkscape:cx="4.6981138" inkscape:pageshadow="2" showgrid="false" guidetolerance="10" objecttolerance="10" inkscape:window-width="1920" inkscape:current-layer="Layer_1"/>
 <g id="g4489" transform="rotate(-45,24,24)" style="fill:#0064aa;fill-opacity:1">
  <path id="path4485" inkscape:connector-curvature="0" style="fill:#0064aa;fill-opacity:1" d="M 24,0 C 10.745,0 0,10.746 0,24 0,37.255 10.745,48 24,48 37.255,48 48,37.256 48,24 48,10.746 37.255,0 24,0 Z m 0.029,43.844 C 13.006,43.844 4.07,34.908 4.07,23.886 c 0,-11.022 8.936,-19.96 19.959,-19.96 11.022,0 19.959,8.936 19.959,19.959 0,11.023 -8.936,19.959 -19.959,19.959 z"/>
  <path id="path4487" inkscape:connector-curvature="0" style="fill:#0064aa;fill-opacity:1" d="M 32.56,21.902 H 26.102 L 26.11,15.326 C 26.084,14.872 25.889,13.972 24.779,13.97 L 23.2,13.968 c -1.181,-10e-4 -1.282,1.165 -1.288,1.47 l -0.008,6.463 h -6.607 c -1.22,0 -1.323,0.941 -1.328,1.21 v 1.809 c 0.006,0.247 0.107,1.178 1.328,1.178 h 6.602 L 21.891,32.7 c -0.002,1.219 0.939,1.324 1.209,1.33 l 1.809,0.002 c 0.247,-0.006 1.178,-0.107 1.18,-1.326 l 0.008,-6.607 h 6.581 c 0.454,-0.027 1.354,-0.223 1.354,-1.333 v -1.578 c -10e-4,-1.181 -1.167,-1.28 -1.472,-1.286 z"/>
 </g>
</svg>
