<?xml version='1.0' encoding='UTF-8' standalone='no'?>
<svg xmlns:sodipodi="http://sodipodi.sourceforge.net/DTD/sodipodi-0.dtd" height="48px" version="1.1" xml:space="preserve" inkscape:version="0.92.1 r15371" xmlns:rdf="http://www.w3.org/1999/02/22-rdf-syntax-ns#" xmlns:svg="http://www.w3.org/2000/svg" viewBox="0 0 48 48" xmlns:cc="http://creativecommons.org/ns#" xmlns="http://www.w3.org/2000/svg" xmlns:inkscape="http://www.inkscape.org/namespaces/inkscape" enable-background="new 0 0 48 48" xmlns:dc="http://purl.org/dc/elements/1.1/" id="Layer_1" width="48px" sodipodi:docname="LocationOccupiedLight.svg">
 <metadata id="metadata13">
  <rdf:RDF>
   <cc:Work rdf:about="">
    <dc:format>image/svg+xml</dc:format>
    <dc:type rdf:resource="http://purl.org/dc/dcmitype/StillImage"/>
    <dc:title/>
   </cc:Work>
  </rdf:RDF>
 </metadata>
 <defs id="defs11"/>
 <sodipodi:namedview inkscape:window-y="-8" inkscape:pageopacity="0" inkscape:current-layer="Layer_1" showgrid="false" gridtolerance="10" inkscape:window-width="1920" inkscape:pageshadow="2" borderopacity="1" inkscape:window-x="-8" inkscape:cy="24" inkscape:zoom="4.9166667" objecttolerance="10" inkscape:cx="-10.677966" bordercolor="#666666" pagecolor="#ffffff" inkscape:window-height="1017" inkscape:window-maximized="1" guidetolerance="10" id="namedview9"/>
 <g style="fill:#ffffff;fill-opacity:1" id="g6">
  <path fill-opacity="1" fill="#ffffff" d="M24.07,16.7c-3.099,0-5.61,2.512-5.61,5.61c0,0.541,0.081,1.063,0.225,1.559c-0.001,0-0.002,0-0.002,0.001   c0.002,0.007,0.005,0.014,0.008,0.021c0.123,0.422,0.294,0.82,0.508,1.194c0.804,1.633,2.047,3.177,4.329,5.828   c0.221,0.219,0.72,0.541,1.335-0.113c4.843-5.228,4.776-7.817,4.776-7.817s-0.001,0-0.002,0c0.026-0.221,0.045-0.444,0.045-0.672   C29.681,19.212,27.169,16.7,24.07,16.7z" style="fill:#fbfbfb;fill-opacity:1" id="path2"/>
  <path fill-opacity="1" fill="#ffffff" d="M24,0C10.745,0,0,10.745,0,24s10.745,24,24,24s24-10.745,24-24S37.255,0,24,0z M32.985,22.385   c0,0,0.103,4.314-8.083,13.013c-0.81,0.797-1.58,0.011-1.628-0.041c-3.777-4.384-5.821-6.909-7.136-9.579   c-0.344-0.603-0.621-1.248-0.82-1.928c-0.004-0.011-0.009-0.021-0.013-0.032c0.001-0.001,0.003-0.001,0.004-0.002   c-0.231-0.8-0.361-1.642-0.361-2.515c0-5,4.053-9.054,9.054-9.054c4.999,0,9.052,4.053,9.052,9.054   c0,0.367-0.028,0.729-0.071,1.084C32.982,22.385,32.985,22.385,32.985,22.385z" style="fill:#fbfbfb;fill-opacity:1" id="path4"/>
 </g>
</svg>
