<?xml version='1.0' encoding='UTF-8' standalone='no'?>
<svg id="svg4508" viewBox="0 0 20 20" inkscape:version="0.92.1 r15371" xmlns="http://www.w3.org/2000/svg" xmlns:rdf="http://www.w3.org/1999/02/22-rdf-syntax-ns#" height="20px" xmlns:dc="http://purl.org/dc/elements/1.1/" width="20px" sodipodi:docname="PauseWhite.svg" xmlns:inkscape="http://www.inkscape.org/namespaces/inkscape" xmlns:sodipodi="http://sodipodi.sourceforge.net/DTD/sodipodi-0.dtd" xmlns:svg="http://www.w3.org/2000/svg" version="1.1" xmlns:cc="http://creativecommons.org/ns#">
 <metadata id="metadata4512">
  <rdf:RDF>
   <cc:Work rdf:about="">
    <dc:format>image/svg+xml</dc:format>
    <dc:type rdf:resource="http://purl.org/dc/dcmitype/StillImage"/>
    <dc:title/>
   </cc:Work>
  </rdf:RDF>
 </metadata>
 <sodipodi:namedview id="namedview4510" inkscape:window-maximized="1" inkscape:window-x="-8" borderopacity="1" pagecolor="#ffffff" inkscape:zoom="11.8" inkscape:window-height="1017" inkscape:window-y="-8" gridtolerance="10" inkscape:cy="10" bordercolor="#666666" inkscape:pageopacity="0" inkscape:cx="10" inkscape:pageshadow="2" showgrid="false" guidetolerance="10" objecttolerance="10" inkscape:window-width="1920" inkscape:current-layer="svg4508"/>
 <desc id="desc4500"/>
 <defs id="defs4502"/>
 <g id="Page-1" fill-rule="evenodd" stroke-opacity="1" fill-opacity="1" stroke-width="1" fill="#0064aa" style="fill:#ffffff;fill-opacity:1" stroke="#0064aa">
  <g id="Icons-AV" fill-opacity="1" transform="translate(-42.000000, -85.000000)" fill="#0064aa" style="fill:#ffffff;fill-opacity:1">
   <g id="pause-circle-outline" transform="translate(42.000000, 85.000000)" style="fill:#ffffff;fill-opacity:1">
    <path id="Shape" style="fill:#ffffff;fill-opacity:1" d="M7,14 L9,14 L9,6 L7,6 L7,14 L7,14 Z M10,0 C4.5,0 0,4.5 0,10 C0,15.5 4.5,20 10,20 C15.5,20 20,15.5 20,10 C20,4.5 15.5,0 10,0 L10,0 Z M10,18 C5.6,18 2,14.4 2,10 C2,5.6 5.6,2 10,2 C14.4,2 18,5.6 18,10 C18,14.4 14.4,18 10,18 L10,18 Z M11,14 L13,14 L13,6 L11,6 L11,14 L11,14 Z"/>
   </g>
  </g>
 </g>
</svg>
