<?xml version="1.0" encoding="UTF-8" standalone="no"?>
<svg
   xmlns:dc="http://purl.org/dc/elements/1.1/"
   xmlns:cc="http://creativecommons.org/ns#"
   xmlns:rdf="http://www.w3.org/1999/02/22-rdf-syntax-ns#"
   xmlns:svg="http://www.w3.org/2000/svg"
   xmlns="http://www.w3.org/2000/svg"
   xmlns:sodipodi="http://sodipodi.sourceforge.net/DTD/sodipodi-0.dtd"
   xmlns:inkscape="http://www.inkscape.org/namespaces/inkscape"
   enable-background="new 0 0 48 48"
   height="48px"
   id="Layer_1"
   version="1.1"
   viewBox="0 0 48 48"
   width="48px"
   xml:space="preserve"
   sodipodi:docname="StatsWhite.svg"
   inkscape:version="0.92.1 r15371"><metadata
     id="metadata4496"><rdf:RDF><cc:Work
         rdf:about=""><dc:format>image/svg+xml</dc:format><dc:type
           rdf:resource="http://purl.org/dc/dcmitype/StillImage" /><dc:title></dc:title></cc:Work></rdf:RDF></metadata><defs
     id="defs4494" /><sodipodi:namedview
     pagecolor="#ffffff"
     bordercolor="#666666"
     borderopacity="1"
     objecttolerance="10"
     gridtolerance="10"
     guidetolerance="10"
     inkscape:pageopacity="0"
     inkscape:pageshadow="2"
     inkscape:window-width="1920"
     inkscape:window-height="1017"
     id="namedview4492"
     showgrid="false"
     inkscape:zoom="17.666667"
     inkscape:cx="24"
     inkscape:cy="24"
     inkscape:window-x="-8"
     inkscape:window-y="-8"
     inkscape:window-maximized="1"
     inkscape:current-layer="g4489" /><g
     id="g4489"><path
       d="M24.001,0c-13.255,0-24,10.745-24,24c0,13.256,10.745,24,24,24c13.255,0,24-10.744,24-24   C48.001,10.745,37.257,0,24.001,0z M24.113,44.092c-11.069,0-20.042-8.973-20.042-20.042c0-11.069,8.973-20.042,20.042-20.042   c11.068,0,20.041,8.973,20.041,20.042C44.153,35.119,35.181,44.092,24.113,44.092z"
       fill="#231F20"
       id="path4485"
       style="fill:#ffffff;fill-opacity:1" /><path
       d="m 27.570651,31.244859 c 0,-0.572 -0.124,-1.115 -0.339,-1.607 l 5.45617,-7.35183 c 2.144,-0.087 3.857,-1.839 3.857,-4.003 0,-2.221 -1.8,-4.021 -4.02,-4.021 -2.221,0 -4.02,1.8 -4.02,4.021 0,1.143 0.482,2.169 1.248,2.901 l -4.82717,6.29783 c -0.432,-0.158 -0.891,-0.258 -1.377,-0.258 -0.327,0 -0.642,0.051 -0.946,0.125 l -2.220377,-3.520208 c 0.416,-0.634 0.664,-1.39 0.664,-2.206 0,-2.221 -1.801,-4.021 -4.021,-4.021 -2.22,0 -4.02,1.8 -4.02,4.021 0,2.22 1.799,4.02 4.02,4.02 0.273,0 0.541,-0.028 0.799,-0.081 l 2.285377,3.631208 c -0.361,0.602 -0.58,1.299 -0.58,2.053 0,2.219 1.799,4.02 4.02,4.02 2.221,0 4.021,-1.802 4.021,-4.021 z m 3.41417,-12.96283 c 0,-0.851 0.689,-1.541 1.54,-1.541 0.851,0 1.541,0.69 1.541,1.541 0,0.85 -0.69,1.54 -1.541,1.54 -0.851,0 -1.54,-0.69 -1.54,-1.54 z m -15.499547,3.339622 c 0,-0.851 0.689,-1.541 1.541,-1.541 0.852,0 1.541,0.69 1.541,1.541 0,0.85 -0.689,1.54 -1.541,1.54 -0.852,0 -1.541,-0.69 -1.541,-1.54 z m 6.524377,9.623208 c 0,-0.852 0.69,-1.541 1.541,-1.541 0.851,0 1.541,0.689 1.541,1.541 0,0.85 -0.69,1.539 -1.541,1.539 -0.851,0 -1.541,-0.69 -1.541,-1.539 z"
       id="path4487"
       inkscape:connector-curvature="0"
       style="fill:#ffffff;fill-opacity:1"
       sodipodi:nodetypes="sccsssccsccssssccssssssssssssssssss" /></g></svg>