<?xml version='1.0' encoding='UTF-8' standalone='no'?>
<svg enable-background="new 0 0 48 48" id="Layer_1" viewBox="0 0 48 48" inkscape:version="0.92.1 r15371" xmlns="http://www.w3.org/2000/svg" xml:space="preserve" xmlns:rdf="http://www.w3.org/1999/02/22-rdf-syntax-ns#" height="48px" xmlns:dc="http://purl.org/dc/elements/1.1/" width="48px" xmlns:sodipodi="http://sodipodi.sourceforge.net/DTD/sodipodi-0.dtd" xmlns:inkscape="http://www.inkscape.org/namespaces/inkscape" sodipodi:docname="StatsDark.svg" xmlns:svg="http://www.w3.org/2000/svg" version="1.1" xmlns:cc="http://creativecommons.org/ns#">
 <metadata id="metadata4496">
  <rdf:RDF>
   <cc:Work rdf:about="">
    <dc:format>image/svg+xml</dc:format>
    <dc:type rdf:resource="http://purl.org/dc/dcmitype/StillImage"/>
    <dc:title/>
   </cc:Work>
  </rdf:RDF>
 </metadata>
 <defs id="defs4494"/>
 <sodipodi:namedview id="namedview4492" inkscape:window-maximized="1" inkscape:window-x="-8" borderopacity="1" pagecolor="#ffffff" inkscape:zoom="17.666667" inkscape:window-height="1017" inkscape:window-y="-8" gridtolerance="10" inkscape:cy="24" bordercolor="#666666" inkscape:pageopacity="0" inkscape:cx="4.6981138" inkscape:pageshadow="2" showgrid="false" guidetolerance="10" objecttolerance="10" inkscape:window-width="1920" inkscape:current-layer="g4489"/>
 <g id="g4489">
  <g id="g4501">
   <path id="path4485" inkscape:connector-curvature="0" style="fill:#0064aa;fill-opacity:1" d="m 24.001,0 c -13.255,0 -24,10.745 -24,24 0,13.256 10.745,24 24,24 13.255,0 24,-10.744 24,-24 0,-13.255 -10.744,-24 -24,-24 z m 0.112,44.092 c -11.069,0 -20.042,-8.973 -20.042,-20.042 0,-11.069 8.973,-20.042 20.042,-20.042 11.068,0 20.041,8.973 20.041,20.042 -0.001,11.069 -8.973,20.042 -20.041,20.042 z"/>
   <path id="path4487" inkscape:connector-curvature="0" sodipodi:nodetypes="sccsssccsccssssccssssssssssssssssss" style="fill:#0064aa;fill-opacity:1" d="m 27.570651,31.244859 c 0,-0.572 -0.124,-1.115 -0.339,-1.607 l 5.45617,-7.35183 c 2.144,-0.087 3.857,-1.839 3.857,-4.003 0,-2.221 -1.8,-4.021 -4.02,-4.021 -2.221,0 -4.02,1.8 -4.02,4.021 0,1.143 0.482,2.169 1.248,2.901 l -4.82717,6.29783 c -0.432,-0.158 -0.891,-0.258 -1.377,-0.258 -0.327,0 -0.642,0.051 -0.946,0.125 l -2.220377,-3.520208 c 0.416,-0.634 0.664,-1.39 0.664,-2.206 0,-2.221 -1.801,-4.021 -4.021,-4.021 -2.22,0 -4.02,1.8 -4.02,4.021 0,2.22 1.799,4.02 4.02,4.02 0.273,0 0.541,-0.028 0.799,-0.081 l 2.285377,3.631208 c -0.361,0.602 -0.58,1.299 -0.58,2.053 0,2.219 1.799,4.02 4.02,4.02 2.221,0 4.021,-1.802 4.021,-4.021 z m 3.41417,-12.96283 c 0,-0.851 0.689,-1.541 1.54,-1.541 0.851,0 1.541,0.69 1.541,1.541 0,0.85 -0.69,1.54 -1.541,1.54 -0.851,0 -1.54,-0.69 -1.54,-1.54 z m -15.499547,3.339622 c 0,-0.851 0.689,-1.541 1.541,-1.541 0.852,0 1.541,0.69 1.541,1.541 0,0.85 -0.689,1.54 -1.541,1.54 -0.852,0 -1.541,-0.69 -1.541,-1.54 z m 6.524377,9.623208 c 0,-0.852 0.69,-1.541 1.541,-1.541 0.851,0 1.541,0.689 1.541,1.541 0,0.85 -0.69,1.539 -1.541,1.539 -0.851,0 -1.541,-0.69 -1.541,-1.539 z"/>
  </g>
 </g>
</svg>
